<?xml version="1.0" encoding="utf-8"?>
<!-- Svg Vector Icons : http://www.onlinewebfonts.com/icon -->
<!DOCTYPE svg PUBLIC "-//W3C//DTD SVG 1.1//EN" "http://www.w3.org/Graphics/SVG/1.1/DTD/svg11.dtd">
<svg version="1.1" xmlns="http://www.w3.org/2000/svg" xmlns:xlink="http://www.w3.org/1999/xlink" x="0px" y="0px" viewBox="0 0 256 256" enable-background="new 0 0 256 256" xml:space="preserve">
<metadata> Svg Vector Icons : http://www.onlinewebfonts.com/icon </metadata>
<g><g><path fill="#000000" d="M217.9,158c-21.8-17.9-21.7-70.7-21.7-71.2c0-39.9-33.3-55.4-43.3-59.1C149.7,17.2,139.8,10,128.1,10c-11.6,0-21.6,7.2-24.7,17.5C60.3,42.8,59.8,86.3,59.8,86.8c0,54.9-20.6,70.8-21,71.1c-13.4,11.1-14,26.7-14,28.1c2.6,17.7,14.5,24,24.8,24l155.4,0c7.9,0,14.2-2.2,18.9-6.7c7.4-7.1,7.4-17,7.4-17.4C231.3,168,218.2,158.2,217.9,158L217.9,158L217.9,158z M216.8,196.9c-2.7,2.6-6.7,3.9-11.8,3.9l-154.8,0l-0.6,4.6v-4.6c-3.8,0-13-1.6-15-15.2c0-0.1,0.6-12.2,10.5-20.5c1-0.7,24.6-18.2,24.6-78.3c0-0.4,0.4-39,39.1-51.3c1.9-0.4,3.3-1.9,3.7-3.7c1.3-7.2,7.9-12.5,15.7-12.5c7.8,0,14.4,5.3,15.7,12.6c0.3,1.7,1.6,3.1,3.4,3.6c1.6,0.5,39.1,12.1,39.1,51.2c0,2.4-0.1,57.5,25.3,78.4c0.4,0.3,9.8,7.5,9.8,20.8C221.4,186,221.4,192.6,216.8,196.9L216.8,196.9z M164.1,215.3c-2.3-0.8-4.8,0.4-5.6,2.8c-3.6,10.9-16.1,18.6-30.5,18.6c-14.4,0-26.9-7.6-30.5-18.5c-0.8-2.4-3.3-3.6-5.6-2.8c-2.3,0.8-3.5,3.5-2.7,5.9C94,235.8,109.9,246,128,246c18,0,34-10.2,38.8-24.8C167.6,218.8,166.4,216.2,164.1,215.3L164.1,215.3z"/></g></g>
</svg>