<?xml version="1.0" encoding="utf-8"?>
<svg version="1.0" width="2048.000000pt" height="1536.000000pt" viewBox="0 0 2048.000000 1536.000000" preserveAspectRatio="xMidYMid meet" xmlns="http://www.w3.org/2000/svg">
  <g transform="matrix(0.1, 0, 0, -0.1, 88.541406, 1553.323509)" fill="#000000" stroke="none">
    <path d="M15585 8913 c-11 -2 -56 -11 -100 -19 -227 -44 -442 -161 -621 -339 -192 -189 -317 -434 -354 -690 -11 -77 -14 -294 -4 -319 6 -14 111 -16 1090 -16 l1084 0 -7 -32 c-37 -205 -188 -435 -368 -563 -104 -74 -257 -142 -361 -159 l-39 -7 3 293 c3 267 2 294 -14 305 -13 10 -166 13 -686 13 -578 0 -668 -2 -668 -14 0 -24 50 -156 86 -228 l34 -68 466 -2 465 -3 -1 -296 c0 -256 2 -298 15 -309 24 -20 328 -7 430 19 247 62 428 163 601 336 188 186 299 395 348 651 14 78 18 145 17 297 l-1 77 -1090 0 c-599 0 -1090 2 -1090 4 0 2 11 43 25 92 74 252 246 460 480 578 74 37 177 73 235 82 l35 6 -3 -301 -3 -301 687 0 686 0 -7 28 c-10 42 -75 202 -96 236 l-19 31 -465 5 -466 5 0 293 c0 160 -2 299 -5 307 -5 12 -31 15 -153 14 -80 -1 -155 -3 -166 -6z" style="fill: rgb(28, 120, 35);"/>
    <path d="M5967 8884 c-4 -4 -7 -414 -7 -911 l0 -903 160 0 160 0 2 302 3 302 190 -302 190 -301 204 -1 203 0 -24 33 c-14 17 -100 140 -193 272 -92 132 -187 268 -211 302 l-44 61 92 119 c240 310 325 420 332 431 5 9 -41 12 -187 12 l-194 0 -30 -42 c-16 -24 -97 -137 -179 -253 l-149 -210 -5 545 -5 545 -150 3 c-83 2 -154 0 -158 -4z" style="fill: rgb(28, 120, 35);"/>
    <path d="M9137 8883 c-4 -3 -7 -406 -7 -894 l0 -887 68 -16 c171 -39 409 -54 532 -34 216 34 374 146 465 330 59 120 78 209 78 368 0 209 -44 350 -142 453 -64 67 -139 104 -240 119 -179 26 -343 -35 -420 -157 l-26 -41 3 383 3 383 -154 0 c-84 0 -157 -3 -160 -7z m683 -842 c81 -41 126 -180 117 -366 -7 -125 -23 -189 -66 -257 -60 -95 -160 -132 -316 -117 -48 4 -92 12 -97 17 -7 7 -9 93 -6 234 4 196 7 231 27 286 66 192 202 273 341 203z" style="fill: rgb(28, 120, 35);"/>
    <path d="M13007 8884 c-4 -4 -7 -414 -7 -911 l0 -903 160 0 160 0 0 302 c0 259 2 300 14 288 8 -8 91 -136 184 -285 94 -148 176 -278 184 -288 12 -16 31 -17 210 -15 l197 3 -230 329 c-127 180 -228 334 -225 341 4 12 375 493 414 538 14 16 5 17 -184 17 l-199 -1 -85 -121 c-207 -296 -262 -373 -271 -376 -5 -2 -10 217 -11 540 l-3 543 -151 3 c-82 1 -153 -1 -157 -4z" style="fill: rgb(28, 120, 35);"/>
    <path d="M4047 8769 c-204 -18 -376 -104 -462 -232 -100 -148 -102 -381 -4 -523 52 -76 101 -108 310 -200 111 -48 220 -102 244 -120 73 -56 99 -137 75 -226 -15 -53 -51 -92 -112 -119 -49 -22 -65 -24 -198 -23 -119 1 -162 6 -237 26 l-92 24 -5 -51 c-3 -27 -7 -95 -8 -149 l-3 -100 65 -12 c106 -21 325 -29 419 -15 165 24 297 88 394 190 192 201 177 541 -30 684 -21 15 -125 67 -230 116 -104 48 -207 99 -227 113 -81 55 -113 139 -81 214 33 80 107 126 220 139 64 7 224 -8 305 -29 l49 -13 5 41 c3 23 8 87 11 142 l6 102 -98 10 c-155 17 -222 20 -316 11z" style="fill: rgb(28, 120, 35);"/>
    <path d="M5112 8315 c-203 -44 -353 -200 -413 -430 -27 -102 -29 -303 -5 -415 45 -213 183 -356 387 -405 93 -22 240 -29 350 -16 99 11 286 54 301 69 9 9 -10 213 -22 232 -5 7 -32 3 -82 -14 -184 -62 -389 -60 -492 3 -19 12 -48 37 -65 56 -32 37 -71 146 -71 200 0 28 4 33 31 39 17 3 193 6 389 6 l358 0 7 76 c5 46 3 111 -4 161 -35 248 -171 401 -395 444 -69 13 -199 10 -274 -6z m209 -226 c82 -28 135 -96 146 -190 l6 -49 -233 0 -233 0 7 41 c23 146 173 243 307 198z" style="fill: rgb(28, 120, 35);"/>
    <path d="M7472 8310 c-275 -74 -430 -330 -416 -686 12 -304 144 -490 390 -555 94 -24 272 -32 389 -17 87 11 264 53 277 66 8 8 -14 227 -24 237 -3 3 -39 -6 -80 -19 -158 -53 -353 -60 -454 -17 -97 42 -158 132 -170 250 -6 48 -4 61 7 63 8 0 19 2 24 3 6 2 175 3 376 4 l367 1 6 73 c27 280 -104 518 -322 588 -98 32 -272 36 -370 9z m225 -222 c82 -20 153 -120 153 -215 l0 -23 -230 0 -230 0 0 28 c0 44 44 126 90 164 62 54 130 68 217 46z" style="fill: rgb(28, 120, 35);"/>
    <path d="M8846 8305 c-74 -30 -143 -97 -191 -184 -32 -57 -36 -61 -30 -31 3 19 8 74 12 123 l6 87 -152 0 -151 0 0 -615 0 -615 160 0 160 0 0 303 c0 409 17 497 110 588 54 53 117 73 195 62 l45 -6 0 44 c0 24 3 95 7 157 l6 112 -59 0 c-39 0 -79 -9 -118 -25z" style="fill: rgb(28, 120, 35);"/>
    <path d="M10740 8324 c-14 -2 -52 -9 -85 -15 -33 -5 -93 -20 -134 -31 l-74 -22 7 -90 c4 -50 10 -110 13 -132 l5 -42 64 29 c165 75 382 85 476 24 49 -33 68 -72 75 -154 l6 -68 -105 -6 c-303 -19 -501 -115 -585 -283 -33 -68 -37 -83 -37 -157 -1 -191 92 -300 279 -328 99 -15 206 0 289 42 72 35 101 60 151 125 l37 48 -7 -97 -6 -97 150 0 c90 0 151 4 153 10 2 5 1 220 -2 477 -7 514 -7 520 -70 615 -38 57 -102 99 -195 128 -56 18 -100 23 -225 25 -85 2 -166 2 -180 -1z m349 -729 c6 -31 -19 -127 -45 -171 -28 -49 -85 -101 -132 -121 -41 -17 -136 -20 -174 -5 -61 25 -86 122 -49 189 39 69 126 108 266 121 113 10 129 8 134 -13z" style="fill: rgb(28, 120, 35);"/>
    <path d="M12245 8317 c-111 -29 -212 -99 -261 -183 -15 -25 -28 -44 -29 -42 -2 2 1 43 6 93 5 49 7 96 4 102 -3 10 -44 13 -155 13 l-150 0 0 -615 0 -615 159 0 159 0 4 348 c5 324 6 351 27 406 46 127 126 213 220 236 90 21 165 -18 189 -98 8 -27 12 -170 12 -466 l0 -426 160 0 160 0 0 470 c0 309 -4 487 -11 522 -26 122 -87 200 -185 238 -72 28 -231 36 -309 17z" style="fill: rgb(28, 120, 35);"/>
    <path d="M3910 6898 c27 -59 26 -149 -1 -205 -12 -24 -43 -62 -69 -85 l-47 -41 31 -26 c17 -15 51 -42 75 -61 l44 -34 73 39 c89 46 162 115 194 179 19 41 22 59 18 124 -3 45 -13 93 -23 115 l-19 37 -147 0 -148 0 19 -42z" style="fill: rgb(28, 120, 35);"/>
  </g>
</svg>